<svg id="Calque_1" data-name="Calque 1" xmlns="http://www.w3.org/2000/svg" viewBox="0 0 1103 760.5"><defs><style>.cls-1{fill:#e6e6e6;}.cls-12,.cls-2{fill:none;}.cls-3{fill:#006b42;}.cls-10,.cls-4,.cls-8,.cls-9{fill:#fff;}.cls-5{fill:#17b9a3;}.cls-6{fill:#4f767b;}.cls-7{fill:#8ba1a5;}.cls-10,.cls-12,.cls-8,.cls-9{stroke:#000;stroke-miterlimit:10;}.cls-8{stroke-width:0.57px;}.cls-9{stroke-width:1.47px;}.cls-10{stroke-width:1.18px;}.cls-11{fill:#c6d547;}.cls-12{stroke-width:0.84px;}.cls-13{fill:#78ae42;}.cls-14{fill:#1e4b26;}.cls-15{fill:#92c946;}.cls-16{fill:#534741;}.cls-17{fill:#8fc845;}.cls-18{fill:#35672d;}.cls-19{fill:#a3a3a3;}.cls-20{fill:#f69536;}.cls-21{fill:#ffae5d;}.cls-22{fill:#ebebeb;}.cls-23{fill:#0b9495;}.cls-24{fill:#ffc41b;}</style></defs><title>background</title><rect class="cls-1" width="1103" height="760.5"/><line class="cls-2" x1="303.5" y1="114.62" x2="303.5" y2="114.5"/><path class="cls-3" d="M1269.5,376.5" transform="translate(0)"/><rect class="cls-4" x="280.08" y="522.87" width="633.6" height="31.93" rx="15.97" ry="15.97"/><rect class="cls-5" x="318.74" y="581.7" width="363.86" height="31.93" rx="15.97" ry="15.97"/><rect class="cls-5" x="300.25" y="554.81" width="563.85" height="31.93" rx="15.97" ry="15.97"/><rect class="cls-5" x="254.03" y="612.79" width="561.33" height="31.93" rx="15.97" ry="15.97"/><rect class="cls-5" x="484.28" y="644.72" width="287.39" height="26.89" rx="13.45" ry="13.45"/><rect class="cls-5" x="316.22" y="671.61" width="287.39" height="26.89" rx="13.45" ry="13.45"/><rect class="cls-5" x="692.68" y="581.7" width="100.84" height="31.93" rx="15.97" ry="15.97"/><line class="cls-2" x1="408.9" y1="456.41" x2="408.9" y2="456.36"/><polygon class="cls-6" points="501.06 394.74 436.2 394.56 438.11 264.55 501.06 394.74"/><path class="cls-7" d="M436.2,392.88l-61.83-.18q21.79-44.43,43.58-88.84,10.08-20.52,20.14-41l0,0Z" transform="translate(0)"/><path class="cls-7" d="M424.21,301" transform="translate(0)"/><path class="cls-8" d="M428.65,304" transform="translate(0)"/><path class="cls-7" d="M426.45,317.51" transform="translate(0)"/><path class="cls-4" d="M414.91,310.06s9.87-6.64,11.39-1.47.61,11.78,6.84,12.58S449,306.07,449,306.07l5.88-8.4L438.11,262.8Z" transform="translate(0)"/><polygon class="cls-6" points="484.58 490.58 316.23 490.11 321.19 152.68 484.58 490.58"/><path class="cls-7" d="M316.23,490.11l-160.47-.47L268.88,259.07l52.26-106.51.05.12Z" transform="translate(0)"/><path class="cls-7" d="M285.12,251.51" transform="translate(0)"/><path class="cls-9" d="M296.64,259.31" transform="translate(0)"/><path class="cls-7" d="M290.92,294.51" transform="translate(0)"/><path class="cls-4" d="M261,275.18s37.51-26.13,41.44-12.71-10.29,39.46,5.86,41.53,51.29-30.59,51.29-30.59l32,24.78L321.2,152.5Z" transform="translate(0)"/><polygon class="cls-6" points="823.49 442.5 688.56 442.12 692.54 171.68 823.49 442.5"/><path class="cls-7" d="M688.56,442.12,560,441.74,650.62,257l41.88-85.37,0,.1Z" transform="translate(0)"/><path class="cls-7" d="M663.63,250.89" transform="translate(0)"/><path class="cls-10" d="M672.86,257.14" transform="translate(0)"/><path class="cls-7" d="M668.28,285.35" transform="translate(0)"/><path class="cls-4" d="M644.28,269.86s14.26-14.63,20.79-2.36c5.26,9.89,18.6,5.5,28.36,14.18,10.63,9.45,29.87-13.24,29.87-13.24l17.4,2.6-48.15-99.5Z" transform="translate(0)"/><path class="cls-11" d="M362.44,490.94h50.62C372.46,492.73,362.44,490.94,362.44,490.94Z" transform="translate(0)"/><path class="cls-11" d="M970.83,490.94a473.32,473.32,0,0,1-54.61,0Z" transform="translate(0)"/><line class="cls-12" x1="709.49" y1="382.78" x2="709.49" y2="382.54"/><path class="cls-13" d="M408.9,490.94a53.36,53.36,0,0,1-18.12,0Z" transform="translate(0)"/><line class="cls-11" x1="250.06" y1="375.4" x2="249.41" y2="357.75"/><path class="cls-14" d="M405.29,461.6S542.91,216.47,666,463.21Z" transform="translate(0)"/><path class="cls-3" d="M564.11,491.78C576.5,402.43,694.88,333,758.22,340.2c70.66,8.07,115.13,82.25,147.06,150.22C799.4,490.42,670,491.78,564.11,491.78Z" transform="translate(0)"/><path class="cls-3" d="M128,491.78S343.11,108.6,535.54,494.3Z" transform="translate(0)"/><line class="cls-11" x1="254.45" y1="495.56" x2="254.28" y2="490.75"/><path class="cls-11" d="M262.61,490.82l-90.09.16s36.1-97.83,86.1-96.66Z" transform="translate(0)"/><line class="cls-13" x1="516.21" y1="385.9" x2="515.82" y2="377.62"/><path class="cls-15" d="M509.94,492.75,320.53,496s81.32-88.66,185.41-88Z" transform="translate(0)"/><path class="cls-13" d="M665,490.1l-155,2.65-4-84.8h.39c1.33,0,2.67,0,4,.08C559.09,409.5,612.6,430.88,665,490.1Z" transform="translate(0)"/><line class="cls-13" x1="505.94" y1="407.95" x2="505.71" y2="403.13"/><path class="cls-13" d="M482.6,430.44" transform="translate(0)"/><rect class="cls-11" x="109.5" y="490.94" width="880.65" height="31.93" rx="15.97" ry="15.97"/><path class="cls-13" d="M409.49,491l-146.88.19-4-96.5h.18c28,9.47,65.46,25.59,103,53.43A338.39,338.39,0,0,1,409.49,491Z" transform="translate(0)"/><path class="cls-11" d="M712,490.94H413.06c21.62-.82,51.89-2.52,93.91-5.79,107-8.33,66.39-38.39,152.1-76.77,18.18-8.15,34.95-11.18,50.42-10.66Z" transform="translate(0)"/><path class="cls-13" d="M964.1,490.94H712.59l-3.1-93.22c74.63,2,124.75,58.68,159.38,76.56C890.12,485.26,929.46,489.49,964.1,490.94Z" transform="translate(0)"/><rect class="cls-16" x="897.58" y="474.21" width="3.99" height="15.97"/><polygon class="cls-17" points="900.24 480.86 900.24 432.96 885.6 456.91 898.91 448.93 884.27 472.88 898.91 466.22 884.27 480.86 900.24 480.86"/><polygon class="cls-18" points="900.24 480.86 900.24 432.96 914.87 456.91 901.57 448.93 916.2 472.88 901.57 466.22 916.2 480.86 900.24 480.86"/><rect class="cls-16" x="558.91" y="448.68" width="3.23" height="12.92"/><polygon class="cls-17" points="561.06 454.06 561.06 415.31 549.22 434.69 559.99 428.23 548.15 447.61 559.99 442.22 548.15 454.06 561.06 454.06"/><polygon class="cls-18" points="561.06 454.06 561.06 415.31 572.9 434.69 562.14 428.23 573.98 447.61 562.14 442.22 573.98 454.06 561.06 454.06"/><rect class="cls-16" x="519.65" y="428.91" width="2.29" height="9.17"/><polygon class="cls-17" points="521.18 432.73 521.18 405.23 512.78 418.98 520.41 414.39 512.01 428.14 520.41 424.32 512.01 432.73 521.18 432.73"/><polygon class="cls-18" points="521.18 432.73 521.18 405.23 529.58 418.98 521.94 414.39 530.34 428.14 521.94 424.32 530.34 432.73 521.18 432.73"/><rect class="cls-16" x="542.97" y="371.49" width="2.43" height="9.71"/><polygon class="cls-17" points="544.59 375.54 544.59 346.41 535.69 360.97 543.78 356.12 534.88 370.68 543.78 366.64 534.88 375.54 544.59 375.54"/><polygon class="cls-18" points="544.59 375.54 544.59 346.41 553.49 360.97 545.4 356.12 554.3 370.68 545.4 366.64 554.3 375.54 544.59 375.54"/><rect class="cls-16" x="524.57" y="383.25" width="2.43" height="9.71"/><polygon class="cls-17" points="526.19 387.29 526.19 358.16 517.29 372.73 525.38 367.87 516.48 382.44 525.38 378.39 516.48 387.29 526.19 387.29"/><polygon class="cls-18" points="526.19 387.29 526.19 358.16 535.09 372.73 527 367.87 535.9 382.44 527 378.39 535.9 387.29 526.19 387.29"/><rect class="cls-16" x="807.33" y="364.73" width="1.99" height="7.97"/><polygon class="cls-17" points="808.66 368.05 808.66 344.15 801.35 356.1 807.99 352.11 800.69 364.07 807.99 360.75 800.69 368.05 808.66 368.05"/><polygon class="cls-18" points="808.66 368.05 808.66 344.15 815.96 356.1 809.32 352.11 816.63 364.07 809.32 360.75 816.63 368.05 808.66 368.05"/><rect class="cls-16" x="787.33" y="354.39" width="1.99" height="7.97"/><polygon class="cls-17" points="788.66 357.71 788.66 333.8 781.36 345.75 788 341.77 780.69 353.72 788 350.4 780.69 357.71 788.66 357.71"/><polygon class="cls-18" points="788.66 357.71 788.66 333.8 795.96 345.75 789.32 341.77 796.63 353.72 789.32 350.4 796.63 357.71 788.66 357.71"/><rect class="cls-16" x="779.06" y="384.73" width="1.99" height="7.97"/><polygon class="cls-17" points="780.39 388.05 780.39 364.14 773.08 376.1 779.72 372.11 772.42 384.06 779.72 380.74 772.42 388.05 780.39 388.05"/><polygon class="cls-18" points="780.39 388.05 780.39 364.14 787.69 376.1 781.05 372.11 788.35 384.06 781.05 380.74 788.35 388.05 780.39 388.05"/><rect class="cls-16" x="641" y="386.75" width="1.92" height="7.67"/><polygon class="cls-17" points="642.27 389.94 642.27 366.94 635.25 378.44 641.64 374.6 634.61 386.11 641.64 382.91 634.61 389.94 642.27 389.94"/><polygon class="cls-18" points="642.27 389.94 642.27 366.94 649.31 378.44 642.91 374.6 649.95 386.11 642.91 382.91 649.95 389.94 642.27 389.94"/><rect class="cls-16" x="663.56" y="390.07" width="1.92" height="7.67"/><polygon class="cls-17" points="664.84 393.26 664.84 370.25 657.81 381.76 664.2 377.92 657.17 389.43 664.2 386.23 657.17 393.26 664.84 393.26"/><polygon class="cls-18" points="664.84 393.26 664.84 370.25 671.87 381.76 665.48 377.92 672.51 389.43 665.48 386.23 672.51 393.26 664.84 393.26"/><rect class="cls-16" x="363.69" y="353.38" width="3.3" height="13.19"/><polygon class="cls-17" points="365.88 358.88 365.88 319.3 353.79 339.09 364.79 332.5 352.69 352.28 364.79 346.79 352.69 358.88 365.88 358.88"/><polygon class="cls-18" points="365.88 358.88 365.88 319.3 377.98 339.09 366.98 332.5 379.08 352.28 366.98 346.79 379.08 358.88 365.88 358.88"/><rect class="cls-16" x="305.36" y="328.39" width="3.3" height="13.19"/><polygon class="cls-17" points="307.56 333.88 307.56 294.31 295.47 314.1 306.46 307.5 294.37 327.29 306.46 321.79 294.37 333.88 307.56 333.88"/><polygon class="cls-18" points="307.56 333.88 307.56 294.31 319.65 314.1 308.66 307.5 320.75 327.29 308.66 321.79 320.75 333.88 307.56 333.88"/><rect class="cls-16" x="169.86" y="442.27" width="3.99" height="15.97"/><polygon class="cls-17" points="172.52 448.93 172.52 401.03 157.89 424.98 171.19 416.99 156.56 440.94 171.19 434.29 156.56 448.93 172.52 448.93"/><polygon class="cls-18" points="172.52 448.93 172.52 401.03 187.16 424.98 173.85 416.99 188.49 440.94 173.85 434.29 188.49 448.93 172.52 448.93"/><rect class="cls-16" x="815.6" y="372.31" width="1.99" height="7.97"/><polygon class="cls-17" points="816.93 375.63 816.93 351.73 809.63 363.68 816.27 359.7 808.96 371.65 816.27 368.33 808.96 375.63 816.93 375.63"/><polygon class="cls-18" points="816.93 375.63 816.93 351.73 824.24 363.68 817.6 359.7 824.9 371.65 817.6 368.33 824.9 375.63 816.93 375.63"/><line class="cls-19" x1="125.52" y1="13.07" x2="125.5" y2="12.5"/><polygon class="cls-20" points="390.42 623.28 355.37 597.45 390.42 597.45 390.42 623.28"/><polygon class="cls-20" points="447.61 623.28 473.43 596.53 447.61 597.45 447.61 623.28"/><rect class="cls-20" x="390.42" y="597.45" width="57.19" height="25.83"/><rect class="cls-21" x="366.44" y="602.06" width="96.85" height="2.77" rx="1.38" ry="1.38"/><rect x="409.79" y="583.61" width="3.69" height="13.84"/><polygon class="cls-4" points="413.48 587.3 353.78 587.3 411.65 502.18 413.48 587.3"/><polygon class="cls-22" points="470.41 587.3 413.48 587.3 411.65 502.18 412.09 501.52 470.41 587.3"/><rect class="cls-23" x="357.21" y="623.28" width="113.45" height="4.61" rx="2.31" ry="2.31"/><rect class="cls-23" x="394.11" y="627.89" width="90.39" height="4.61" rx="2.31" ry="2.31"/><rect class="cls-22" x="701.5" y="451.5" width="6" height="50"/><rect class="cls-4" x="707.5" y="451.5" width="6" height="50"/><polygon class="cls-22" points="725.15 472.39 668.38 468.91 682.87 424.35 739.64 427.83 725.15 472.39"/><polygon points="677.59 445.08 683.94 425.44 710.18 427.38 703.83 447.01 677.59 445.08"/><path class="cls-4" d="M684.11,425.69l25.75,1.9-6.2,19.17-25.75-1.9,6.2-19.17m-.33-.5-6.51,20.1,26.72,2,6.51-20.09-26.72-2Z" transform="translate(0)"/><polygon points="704.59 447.08 710.94 427.44 737.18 429.38 730.83 449.01 704.59 447.08"/><path class="cls-4" d="M711.11,427.69l25.75,1.9-6.2,19.17-25.75-1.9,6.2-19.17m-.33-.5-6.51,20.1,26.72,2,6.51-20.09-26.72-2Z" transform="translate(0)"/><polygon points="670.59 466.08 676.94 446.44 703.18 448.38 696.83 468.01 670.59 466.08"/><path class="cls-4" d="M677.11,446.69l25.75,1.9-6.2,19.17-25.75-1.9,6.2-19.17m-.33-.5-6.51,20.1,26.72,2,6.51-20.09-26.72-2Z" transform="translate(0)"/><polygon points="697.59 468.08 703.94 448.44 730.18 450.38 723.83 470.01 697.59 468.08"/><path class="cls-4" d="M704.11,448.69l25.75,1.9-6.2,19.17-25.75-1.9,6.2-19.17m-.33-.5-6.51,20.1,26.72,2,6.51-20.09-26.72-2Z" transform="translate(0)"/><rect class="cls-22" x="816.25" y="448.91" width="5.23" height="43.59"/><rect class="cls-4" x="821.48" y="448.91" width="5.23" height="43.59"/><polygon class="cls-22" points="836.87 467.13 787.38 464.09 800.01 425.25 849.5 428.28 836.87 467.13"/><polygon points="795.41 443.31 800.95 426.2 823.82 427.89 818.28 445 795.41 443.31"/><path class="cls-4" d="M801.09,426.42l22.45,1.65-5.41,16.72-22.44-1.66,5.4-16.71m-.29-.44-5.67,17.52,23.3,1.72,5.67-17.52L800.8,426Z" transform="translate(0)"/><polygon points="818.95 445.06 824.48 427.94 847.36 429.63 841.82 446.75 818.95 445.06"/><path class="cls-4" d="M824.63,428.16l22.45,1.66-5.41,16.71-22.45-1.66,5.41-16.71m-.29-.44-5.67,17.52L842,447l5.67-17.52-23.29-1.72Z" transform="translate(0)"/><polygon points="789.31 461.62 794.85 444.5 817.72 446.19 812.18 463.31 789.31 461.62"/><path class="cls-4" d="M795,444.72l22.45,1.66L812,463.09l-22.45-1.66L795,444.72m-.29-.43L789,461.81l23.3,1.72L818,446l-23.29-1.72Z" transform="translate(0)"/><polygon points="812.84 463.36 818.38 446.25 841.25 447.94 835.72 465.05 812.84 463.36"/><path class="cls-4" d="M818.53,446.47,841,448.12l-5.41,16.72-22.45-1.66,5.41-16.71m-.29-.44-5.67,17.52,23.29,1.72,5.67-17.52L818.24,446Z" transform="translate(0)"/><circle class="cls-24" cx="173.76" cy="155.64" r="40.75"/></svg>